<svg width="32" height="32" viewBox="0 0 32 32" fill="none" xmlns="http://www.w3.org/2000/svg">
<g clip-path="url(#clip0_576_146)">
<path d="M16 31.5C24.5604 31.5 31.5 24.5604 31.5 16C31.5 7.43959 24.5604 0.5 16 0.5C7.43959 0.5 0.5 7.43959 0.5 16C0.5 24.5604 7.43959 31.5 16 31.5Z" fill="#E6ECFF"/>
<path d="M28.4382 25.2375C26.9926 23.3021 25.1155 21.7306 22.9561 20.6479C20.7967 19.5651 18.4146 19.0009 15.9989 19.0001C13.5833 18.9993 11.2007 19.562 9.04067 20.6434C6.88059 21.7248 5.0025 23.2951 3.55566 25.2295C4.9951 27.1738 6.87009 28.7537 9.03028 29.8426C11.1905 30.9316 13.5758 31.4992 15.9949 31.4999C18.414 31.5007 20.7997 30.9346 22.9606 29.8471C25.1215 28.7596 26.9975 27.1808 28.4382 25.2375Z" fill="#E4740B"/>
<path d="M16 17C19.3137 17 22 14.3137 22 11C22 7.68629 19.3137 5 16 5C12.6863 5 10 7.68629 10 11C10 14.3137 12.6863 17 16 17Z" fill="#E4740B"/>
</g>
<defs>
<clipPath id="clip0_576_146">
<rect width="32" height="32" fill="white"/>
</clipPath>
</defs>
</svg>
